<?xml version="1.0" encoding="UTF-8" standalone="no"?>
<svg
   xmlns:dc="http://purl.org/dc/elements/1.1/"
   xmlns:cc="http://creativecommons.org/ns#"
   xmlns:rdf="http://www.w3.org/1999/02/22-rdf-syntax-ns#"
   xmlns:svg="http://www.w3.org/2000/svg"
   xmlns="http://www.w3.org/2000/svg"
   xmlns:sodipodi="http://sodipodi.sourceforge.net/DTD/sodipodi-0.dtd"
   xmlns:inkscape="http://www.inkscape.org/namespaces/inkscape"
   inkscape:version="1.0 (4035a4f, 2020-05-01)"
   sodipodi:docname="U.S._states_by_the_delegates_(Democratic_Party,_2016).svg"
   id="svg292"
   version="1.1"
   height="593"
   width="1020">
  <metadata
     id="metadata296">
    <rdf:RDF>
      <cc:Work
         rdf:about="">
        <dc:format>image/svg+xml</dc:format>
        <dc:type
           rdf:resource="http://purl.org/dc/dcmitype/StillImage" />
      </cc:Work>
    </rdf:RDF>
  </metadata>
  <sodipodi:namedview
     inkscape:current-layer="svg292"
     inkscape:window-maximized="1"
     inkscape:window-y="23"
     inkscape:window-x="0"
     inkscape:cy="300.01235"
     inkscape:cx="489.13932"
     inkscape:zoom="1.0115378"
     showgrid="false"
     id="namedview294"
     inkscape:window-height="802"
     inkscape:window-width="1440"
     inkscape:pageshadow="2"
     inkscape:pageopacity="0"
     guidetolerance="10"
     gridtolerance="10"
     objecttolerance="10"
     borderopacity="1"
     bordercolor="#666666"
     pagecolor="#ffffff" />
  <title
     id="title172">2016 US Democratic primaries delegates</title>
  <defs
     id="defs176">
    <style
       id="style174"
       type="text/css">
    .state{fill:#003399;}
  </style>
  </defs>
  <g
     class="state"
     id="outlines">
    <path
       d="M161.1 453.7l-.3 85.4 1.6 1 3.1.2 1.5-1.1h2.6l.2 2.9 7 6.8.5 2.6 3.4-1.9.6-.2.3-3.1 1.5-1.6 1.1-.2 1.9-1.5 3.1 2.1.6 2.9 1.9 1.1 1.1 2.4 3.9 1.8 3.4 6 2.7 3.9 2.3 2.7 1.5 3.7 5 1.8 5.2 2.1 1 4.4.5 3.1-1 3.4-1.8 2.3-1.6-.8-1.5-3.1-2.7-1.5-1.8-1.1-.8.8 1.5 2.7.2 3.7-1.1.5-1.9-1.9-2.1-1.3.5 1.6 1.3 1.8-.8.8s-.8-.3-1.3-1c-.5-.6-2.1-3.4-2.1-3.4l-1-2.3s-.3 1.3-1 1c-.6-.3-1.3-1.5-1.3-1.5l1.8-1.9-1.5-1.5v-5h-.8l-.8 3.4-1.1.5-1-3.7-.6-3.7-.8-.5.3 5.7v1.1l-1.5-1.3-3.6-6-2.1-.5-.6-3.7-1.6-2.9-1.6-1.1v-2.3l2.1-1.3-.5-.3-2.6.6-3.4-2.4-2.6-2.9-4.8-2.6-4-2.6 1.3-3.2V542l-1.8 1.6-2.9 1.1-3.7-1.1-5.7-2.4h-5.5l-.6.5-6.5-3.9-2.1-.3-2.7-5.8-3.6.3-3.6 1.5.5 4.5 1.1-2.9 1 .3-1.5 4.4 3.2-2.7.6 1.6-3.9 4.4-1.3-.3-.5-1.9-1.3-.8-1.3 1.1-2.7-1.8-3.1 2.1-1.8 2.1-3.4 2.1-4.7-.2-.5-2.1 3.7-.6v-1.3l-2.3-.6 1-2.4 2.3-3.9v-1.8l.2-.8 4.4-2.3 1 1.3h2.7l-1.3-2.6-3.7-.3-5 2.7-2.4 3.4-1.8 2.6-1.1 2.3-4.2 1.5-3.1 2.6-.3 1.6 2.3 1 .8 2.1-2.7 3.2-6.5 4.2-7.8 4.2-2.1 1.1-5.3 1.1-5.3 2.3 1.8 1.3-1.5 1.5-.5 1.1-2.7-1-3.2.2-.8 2.3h-1l.3-2.4-3.6 1.3-2.9 1-3.4-1.3-2.9 1.9h-3.2l-2.1 1.3-1.6.8-2.1-.3-2.6-1.1-2.3.6-1 1-1.6-1.1v-1.9l3.1-1.3 6.3.6 4.4-1.6 2.1-2.1 2.9-.6 1.8-.8 2.7.2 1.6 1.3 1-.3 2.3-2.7 3.1-1 3.4-.6 1.3-.3.6.5h.8l1.3-3.7 4-1.5 1.9-3.7 2.3-4.5 1.6-1.5.3-2.6-1.6 1.3-3.4.6-.6-2.4-1.3-.3-1 1-.2 2.9-1.5-.2-1.5-5.8-1.3 1.3-1.1-.5-.3-1.9-4 .2-2.1 1.1-2.6-.3 1.5-1.5.5-2.6-.6-1.9 1.5-1 1.3-.2-.6-1.8v-4.4l-1-1-.8 1.5h-6.1l-1.5-1.3-.6-3.9-2.1-3.6v-1l2.1-.8.2-2.1 1.1-1.1-.8-.5-1.3.5-1.1-2.7 1-5 4.5-3.2 2.6-1.6 1.9-3.7 2.7-1.3 2.6 1.1.3 2.4 2.4-.3 3.2-2.4 1.6.6 1 .6h1.6l2.3-1.3.8-4.4s.3-2.9 1-3.4c.6-.5 1-1 1-1l-1.1-1.9-2.6.8-3.2.8-1.9-.5-3.6-1.8-5-.2-3.6-3.7.5-3.9.6-2.4-2.1-1.8-1.9-3.7.5-.8 6.8-.5h2.1l1 1h.6l-.2-1.6 3.9-.6 2.6.3 1.5 1.1-1.5 2.1-.5 1.5 2.7 1.6 5 1.8 1.8-1-2.3-4.4-1-3.2 1-.8-3.4-1.9-.5-1.1.5-1.6-.8-3.9-2.9-4.7-2.4-4.2 2.9-1.9h3.2l1.8.6 4.2-.2 3.7-3.6 1.1-3.1 3.7-2.4 1.6 1 2.7-.6 3.7-2.1 1.1-.2 1 .8 4.5-.2 2.7-3.1h1.1l3.6 2.4 1.9 2.1-.5 1.1.6 1.1 1.6-1.6 3.9.3.3 3.7 1.9 1.5 7.1.6 6.3 4.2 1.5-1 5.2 2.6 2.1-.6 1.9-.8 4.8 1.9zM46 482.6l2.1 5.3-.2 1-2.9-.3-1.8-4-1.8-1.5H39l-.2-2.6 1.8-2.4 1.1 2.4 1.5 1.5zm-2.6 33.5l3.7.8 3.7 1 .8 1-1.6 3.7-3.1-.2-3.4-3.6zM22.7 502l1.1 2.6 1.1 1.6-1.1.8-2.1-3.1V502zM9 575.1l3.4-2.3 3.4-1 2.6.3.5 1.6 1.9.5 1.9-1.9-.3-1.6 2.7-.6 2.9 2.6-1.1 1.8-4.4 1.1-2.7-.5-3.7-1.1-4.4 1.5-1.6.3zm48.9-4.5l1.6 1.9 2.1-1.6-1.5-1.3zm2.9 3l1.1-2.3 2.1.3-.8 1.9h-2.4zm23.6-1.9l1.5 1.8 1-1.1-.8-1.9zm8.8-12.5l1.1 5.8 2.9.8 5-2.9 4.4-2.6-1.6-2.4.5-2.4-2.1 1.3-2.9-.8 1.6-1.1 1.9.8 3.9-1.8.5-1.5-2.4-.8.8-1.9-2.7 1.9-4.7 3.6-4.8 2.9zm42.3-19.8l2.4-1.5-1-1.8-1.8 1z"
       id="AK" />
    <path
       d="M233.1 519.3l1.9-3.6 2.3-.3.3.8-2.1 3.1zm10.2-3.7l6.1 2.6 2.1-.3 1.6-3.9-.6-3.4-4.2-.5-4 1.8zm30.7 10l3.7 5.5 2.4-.3 1.1-.5 1.5 1.3 3.7-.2 1-1.5-2.9-1.8-1.9-3.7-2.1-3.6-5.8 2.9zm20.2 8.9l1.3-1.9 4.7 1 .6-.5 6.1.6-.3 1.3-2.6 1.5-4.4-.3zm5.3 5.2l1.9 3.9 3.1-1.1.3-1.6-1.6-2.1-3.7-.3zm7-1.2l2.3-2.9 4.7 2.4 4.4 1.1 4.4 2.7v1.9l-3.6 1.8-4.8 1-2.4-1.5zm16.6 15.6l1.6-1.3 3.4 1.6 7.6 3.6 3.4 2.1 1.6 2.4 1.9 4.4 4 2.6-.3 1.3-3.9 3.2-4.2 1.5-1.5-.6-3.1 1.8-2.4 3.2-2.3 2.9-1.8-.2-3.6-2.6-.3-4.5.6-2.4-1.6-5.7-2.1-1.8-.2-2.6 2.3-1 2.1-3.1.5-1-1.6-1.8z"
       id="HI" />
    <path
       d="M628.5 466.4l.6.2 1.3-2.7 1.5-4.4 2.3.6 3.1 6v1l-2.7 1.9 2.7.3 5.2-2.5-.3-7.6-2.5-1.8-2-2 .4-4 10.5-1.5 25.7-2.9 6.7-.6 5.6.1-.5-2.2-1.5-.8-.9-1.1 1-2.6-.4-5.2-1.6-4.5.8-5.1 1.7-4.8-.2-1.7-1.8-.7-.5-3.6-2.7-3.4-2-6.5-1.4-6.7-1.8-5-3.8-16-3.5-7.9-.8-5.6.1-2.2-9 .8-23.4 2.2-12.2.8-.2 6.4.2 16.7-.7 31-.3 14.1 2.8 18.8 1.6 14.7z"
       id="AL" />
    <path
       d="M587.3 346.1l-6.4-.7.9-3.1 3.1-2.6.6-2.3-1.8-2.9-31.9 1.2-23.3.7-23.6.3 1.5 6.9.1 8.5 1.4 10.9.3 38.2 2.1 1.6 3-1.2 2.9 1.2.4 10.1 25.2-.2 26.8-.8.9-1.9-.3-3.8-1.7-3.1 1.5-1.4-1.4-2.2.7-2.4 1.1-5.9 2.7-2.3-.8-2.2 4-5.6 2.5-1.1-.1-1.7-.5-1.7 2.9-5.8 2.5-1.1.2-3.3 2.1-1.4.9-4.1-1.4-4 4.2-2.4.3-2.1 1.2-4.2.9-3.1z"
       id="AR" />
    <path
       d="M135.1 389.7l-.3 1.5.5 1 18.9 10.7 12.1 7.6 14.7 8.6 16.8 10 12.3 2.4 25.4 2.7 6-39.6 7-53.1 4.4-31-24.6-3.6-60.7-11-.2 1.1-2.6 16.5-2.1 3.8-2.8-.2-1.2-2.6-2.6-.4-1.2-1.1-1.1.1-2.1 1.7-.3 6.8-.3 1.5-.5 12.5-1.5 2.4-.4 3.3 2.8 5 1.1 5.5.7 1.1 1.1.9-.4 2.4-1.7 1.2-3.4 1.6-1.6 1.8-1.6 3.6-.5 4.9-3 2.9-1.9.9-.1 5.8-.6 1.6.5.8 3.9.4-.9 3-1.7 2.4-3.7.4z"
       id="AZ" />
    <path
       d="M122.7 385.9l-19.7-2.7-10-1.5-.5-1.8v-9.4l-.3-3.2-2.6-4.2-.8-2.3-3.9-4.2-2.9-4.7-2.7-.2-3.2-.8-.3-1 1.5-.6-.6-3.2-1.5-2.1-4.8-.8-3.9-2.1-1.1-2.3-2.6-4.8-2.9-3.1H57l-3.9-2.1-4.5-1.8-4.2-.5-2.4-2.7.5-1.9 1.8-7.1.8-1.9v-2.4l-1.6-1-.5-2.9-1.5-2.6-3.4-5.8-1.3-3.1-1.5-4.7-1.6-5.3-3.2-4.4-.5-2.9.8-3.9h1.1l2.1-1.6 1.1-3.6-1-2.7-2.7-.5-1.9-2.6-2.1-3.7-.2-8.2.6-1.9.6-2.3.5-2.4-5.7-6.3V236l.3-.5.3-3.2-1.3-4-2.3-4.8-2.7-4.5-1.8-3.9 1-3.7.6-5.8 1.8-3.1.3-6.5-1.1-3.6-1.6-4.2L14 184l.8-3.2 1.5-4.2 1.8-.8.3-1.1 3.1-2.6 5.2-11.8.2-7.4 1.69-4.9 38.69 11.8 25.6 6.6-8 31.3-8.67 33.1L88.84 250 131 312.3l17.1 26.1-.4 3.1 2.8 5.2 1.1 5.4 1 1.5.7.6-.2 1.4-1.4 1-3.4 1.6-1.9 2.1-1.7 3.9-.5 4.7-2.6 2.5-2.3 1.1-.1 6.2-.6 1.9 1 1.7 3 .3-.4 1.6-1.4 2-3.9.6zM48.8 337l1.3 1.5-.2 1.3-3.2-.1-.6-1.2-.6-1.5zm1.9 0l1.2-.6 3.6 2.1 3.1 1.2-.9.6-4.5-.2-1.6-1.6zm20.7 19.8l1.8 2.3.8 1 1.5.6.6-1.5-1-1.8-2.7-2-1.1.2v1.2zm-1.4 8.7l1.8 3.2 1.2 1.9-1.5.2-1.3-1.2s-.7-1.5-.7-1.9v-2.2z"
       id="CA" />
    <path
       d="M380.2 235.5l-36-3.5-79.1-8.6-2.2 22.1-7 50.4-1.9 13.7 34 3.9 37.5 4.4 34.7 3 14.3.6z"
       id="CO" />
    <path
       d="M852 190.9l3.6-3.2 1.9-2.1.8.6 2.7-1.5 5.2-1.1 7-3.5-.6-4.2-.8-4.4-1.6-6-4.3 1.1-21.8 4.7.6 3.1 1.5 7.3v8.3l-.9 2.1 1.7 2.2z"
       id="CT" />
    <path
       d="M834.4 247.2l-1 .5-3.6-2.4-1.8-4.7-1.9-3.6-2.3-1-2.1-3.6.5-2 .5-2.3.1-1.1-.6.1-1.7 1-2 1.7-.2.3 1.4 4.1 2.3 5.6 3.7 16.1 5-.3 6-1.1z"
       id="DE" />
    <path
       d="M750.2 445.2l-5.2-.7-.7.8 1.5 4.4-.4 5.2-4.1-1-.2-2.8H737l-5.3.7-32.4 1.9-8.2-.3-1.7-1.7-2.5-4.2H681l-6.6.5-35.4 4.2-.3 2.8 1.6 1.6 2.9 2 .3 8.4 3.3-.6 6-2.1 6-.5 4.4-.6 7.6 1.8 8.1 3.9 1.6 1.5 2.9 1.1 1.6 1.9.3 2.7 3.2-1.3h3.9l3.6-1.9 3.7-3.6 3.1.2.5-1.1-.8-1 .2-1.9 4-.8h2.6l2.9 1.5 4.2 1.5 2.4 3.7 2.7 1 1.1 3.4 3.4 1.6 1.6 2.6 1.9.6 5.2 1.3 1.3 3.1 3 3.7v9.5l-1.5 4.7.3 2.7 1.3 4.8 1.8 4 .8-.5 1.5-4.5-2.6-1-.3-.6 1.6-.6 4.5 1 .2 1.6-3.2 5.5-2.1 2.4 3.6 3.7 2.6 3.1 2.9 5.3 2.9 3.9 2.1 5 1.8.3 1.6-2.1 1.8 1.1 2.6 4 .6 3.6 3.1 4.4.8-1.3 3.9.3 3.6 2.3 3.4 5.2.8 3.4.3 2.9 1.1 1 1.3.5 2.4-1 1.5-1.6 3.9-.2 3.1-1.5 2.7-3.2-.5-1.9-.3-2.4.6-1.9-.3-1.9 2.4-1.3.3-3.4-.6-1.8-.5-12-1.3-7.6-4.5-8.2-3.6-5.8-2.6-5.3-2.9-2.9-2.9-7.4.7-1.4 1.1-1.3-1.6-2.9-4-3.7-4.8-5.5-3.7-6.3-5.3-9.4-3.7-9.7-2.3-7.3zm17.7 132.7l2.4-.6 1.3-.2 1.5-2.3 2.3-1.6 1.3.5 1.7.3.4 1.1-3.5 1.2-4.2 1.5-2.3 1.2zm13.5-5l1.2 1.1 2.7-2.1 5.3-4.2 3.7-3.9 2.5-6.6 1-1.7.2-3.4-.7.5-1 2.8-1.5 4.6-3.2 5.3-4.4 4.2-3.4 1.9z"
       id="FL" />
    <path
       d="M750.2 444.2l-5.6-.7-1.4 1.6 1.6 4.7-.3 3.9-2.2-.6-.2-3h-5.2l-5.3.7-32.3 1.9-7.7-.3-1.4-1.2-2.5-4.3-.8-3.3-1.6-.9-.5-.5.9-2.2-.4-5.5-1.6-4.5.8-4.9 1.7-4.8-.2-2.5-1.9-.7-.4-3.2-2.8-3.5-1.9-6.2-1.5-7-1.7-4.8-3.8-16-3.5-8-.8-5.3.1-2.3 3.3-.3 13.6-1.6 18.6-2 6.3-1.1.5 1.4-2.2.9-.9 2.2.4 2 1.4 1.6 4.3 2.7 3.2-.1 3.2 4.7.6 1.6 2.3 2.8.5 1.7 4.7 1.8 3 2.2 2.3 3 2.3 1.3 2 1.8 1.4 2.7 2.1 1.9 4.1 1.8 2.7 6 1.7 5.1 2.8.7 2.1 1.9 2 5.7 2.9 1.6 1.7-.8.4 1.2-3.3 6.2.5 2.6-1.5 4.2-2.3 10 .8 6.3z"
       id="GA" />
    <path
       d="M556.8 183.6l2.1 2.1.3.7-2 3 .3 4 2.6 4.1 3.1 1.6 2.4.3.9 1.8.2 2.4 2.5 1 .9 1.1.5 1.6 3.8 3.3.6 1.9-.7 3-1.7 3.7-.6 2.4-2.1 1.6-1.6.5-5.7 1.5-1.6 4.8.8 1.8 1.7 1.5-.2 3.5-1.9 1.4-.7 1.8v2.4l-1.4.4-1.7 1.4-.5 1.7.4 1.7-1.3 1-2.3-2.7-1.4-2.8-8.3.8-10 .6-49.2 1.2-1.6-4.3-.4-6.7-1.4-4.2-.7-5.2-2.2-3.7-1-4.6-2.7-7.8-1.1-5.6-1.4-1.9-1.3-2.9 1.7-3.8 1.2-6.1-2.7-2.2-.3-2.4.7-2.4 1.8-.3 61.1-.6 21.2-.7z"
       id="IA" />
    <path
       d="M175.3 27.63l-4.8 17.41L166 65.9l-3.4 16.22-.4 9.67 1.2 4.44 3.5 2.66-.2 3.91-3.9 4.4-4.5 6.6-.9 2.9-1.2 1.1-1.8.8-4.3 5.3-.4 3.1-.4 1.1.6 1 2.6-.1 1.1 2.3-2.4 5.8-1.2 4.2-8.8 35.3 20.7 4.5 39.5 7.9 34.8 6.1 4.9-29.2 3.8-24.1-2.7-2.4-.4-2.6-.8-1.1-2.1 1-.7 2.6-3.2.5-3.9-1.6-3.8.1-2.5.7-3.4-1.5-2.4.2-2.4 2-2-1.1-.7-4 .7-2.9-2.5-2.9-3.3-2.6-2.7-13.1-.1-4.7-.3-.1-.2.4-5.1 3.5-1.7-.2-2.9-3.4-.2-3.1 7-17.13-.4-1.94-3.4-1.15-.6-1.18-2.6-3.46-4.6-10.23-3.2-1.53-2-4.95 1.3-4.63-3.2-7.58 4.4-21.52z"
       id="ID" />
    <path
       d="M618.7 214.3l-.8-2.6-1.3-3.7-1.6-1.8-1.5-2.6-.4-5.5-15.9 1.8-17.4 1h-12.3l.2 2.1 2.2.9 1.1 1.4.4 1.4 3.9 3.4.7 2.4-.7 3.3-1.7 3.7-.8 2.7-2.4 1.9-1.9.6-5.2 1.3-1.3 4.1.6 1.1 1.9 1.8-.2 4.3-2.1 1.6-.5 1.3v2.8l-1.8.6-1.4 1.2-.4 1.2.4 2-1.6 1.3-.9 2.8.3 3.9 2.3 7 7 7.6 5.7 3.7v4.4l.7 1.2 6.6.6 2.7 1.4-.7 3.5-2.2 6.2-.8 3 2 3.7 6.4 5.3 4.8.8 2.2 5.1 2 3.4-.9 2.8 1.5 3.8 1.7 2.1 1.6-.3 1-2.2 2.4-1.7 2.8-1 6.1 2.5.5-.2v-1.1l-1.2-2.7.4-2.8 2.4-1.6 3.4-1.2-.5-1.3-.8-2 1.2-1.3 1-2.7v-4l.4-4.9 2.5-3 1.8-3.8 2.5-4-.5-5.3-1.8-3.2-.3-3.3.8-5.3-.7-7.2-1.1-15.8-1.4-15.3-.9-11.7z"
       id="IL" />
    <path
       d="M622.9 216.1l1.5 1 1.1-.3 2.1-1.9 2.5-1.8 14.3-1.1 18.4-1.8 1.6 15.5 4.9 42.6-.6 2.9 1.3 1.6.2 1.3-2.3 1.6-3.6 1.7-3.2.4-.5 4.8-4.7 3.6-2.9 4 .2 2.4-.5 1.4h-3.5l-1.4-1.7-5.2 3 .2 3.1-.9.2-.5-.9-2.4-1.7-3.6 1.5-1.4 2.9-1.2-.6-1.6-1.8-4.4.5-5.7 1-2.5 1.3v-2.6l.4-4.7 2.3-2.9 1.8-3.9 2.7-4.2-.5-5.8-1.8-3.1-.3-3.2.8-5.3-.7-7.1-.9-12.6-2.5-30.1z"
       id="IN" />
    <path
       d="M485.9 259.5l-43.8-.6-40.6-1.2-21.7-.9-4.3 64.8 24.3 1 44.7 2.1 46.3.6 12.6-.3.7-35-1.2-11.1-2.5-2-2.4-3-2.3-3.6.6-3 1.7-1.4v-2.1l-.8-.7-2.6-.2-3.5-3.4z"
       id="KS" />
    <path
       d="M607.2 331.8l12.6-.7.1-4.1h4.3l30.4-3.2 45.1-4.3 5.6-3.6 3.9-2.1.1-1.9 6-7.8 4.1-3.6 2.1-2.4-3.3-2-2.5-2.7-3-3.8-.5-2.2-2.6-1.4-.9-1.9-.2-6.1-2.6-2-1.9-1.1-.5-2.3-1.3.2-2 1.2-2.5 2.7-1.9-1.7-2.5-.5-2.4 1.4h-2.3l-1.8-2-5.6-.1-1.8-4.5-2.9-1.5-2.1.8-4.2.2-.5 2.1 1.2 1.5.3 2.1-2.8 2-3.8 1.8-2.6.4-.5 4.5-4.9 3.6-2.6 3.7.2 2.2-.9 2.3-4.5-.1-1.3-1.3-3.9 2.2.2 3.3-2.4.6-.8-1.4-1.7-1.2-2.7 1.1-1.8 3.5-2.2-1-1.4-1.6-3.7.4-5.6 1-2.8 1.3-1.2 3.4-1 1 1.5 3.7-4.2 1.4-1.9 1.4-.4 2.2 1.2 2.4v2.2l-1.6.4-6.1-2.5-2.3.9-2 1.4-.8 1.8 1.7 2.4-.9 1.8-.1 3.3-2.4 1.3-2.1 1.7z"
       id="KY" />
    <path
       d="M526.9 485.9l8.1-.3 10.3 3.6 6.5 1.1 3.7-1.5 3.2 1.1 3.2 1 .8-2.1-3.2-1.1-2.6.5-2.7-1.6.8-1.5 3.1-1 1.8 1.5 1.8-1 3.2.6 1.5 2.4.3 2.3 4.5.3 1.8 1.8-.8 1.6-1.3.8 1.6 1.6 8.4 3.6 3.6-1.3 1-2.4 2.6-.6 1.8-1.5 1.3 1 .8 2.9-2.3.8.6.6 3.4-1.3 2.3-3.4.8-.5-2.1-.3.8-1.6-.2-1.5 2.1-.5 1.1-1.3.6.8.6 3.1 4.2.6 4 1.9 1 1.5h2.9l1.1 1 2.3-3.1V493h-1.3l-3.4-2.7-5.8-.8-3.2-2.3 1.1-2.7 2.3.3.2-.6-1.8-1v-.5h3.2l1.8-3.1-1.3-1.9-.3-2.7-1.5.2-1.9 2.1-.6 2.6-3.1-.6-1-1.8 1.8-1.9 1.9-1.7-2.2-6.5-3.4-3.4 1-7.3-.2-.5-1.3.2-33.1 1.4-.8-2.4.8-8.5 8.6-14.8-.9-2.6 1.4-.4.4-2-2.2-2 .1-1.9-2-4.5-.4-5.1.1-.7-26.4.8-25.2.1.4 9.7.7 9.5.5 3.7 2.6 4.5.9 4.4 4.3 6 .3 3.1.6.8-.7 8.3-2.8 4.6 1.2 2.4-.5 2.6-.8 7.3-1.3 3 .2 3.7z"
       id="LA" />
    <path
       d="M887.5 172.5l-.5-2.3.8-1.5 2.9-1.5.8 3.1-.5 1.8-2.4 1.5v1l1.9-1.5 3.9-4.5 3.9-1.9 4.2-1.5-.3-2.4-1-2.9-1.9-2.4-1.8-.8-2.1.2-.5.5 1 1.3 1.5-.8 2.1 1.6.8 2.7-1.8 1.8-2.3 1-3.6-.5-3.9-6-2.3-2.6h-1.8l-1.1.8-1.9-2.6.3-1.5 2.4-5.2-2.9-4.4-3.7 1.8-1.8 2.9-18.3 4.7-13.8 2.5-.6 10.6.7 4.9 22-4.8 11.2-2.8 2 1.6 3.4 4.3 2.9 4.7zm12.5 1.4l2.2-.7.5-1.7 1 .1 1 2.3-1.3.5-3.9.1zm-9.4.8l2.3-2.6h1.6l1.8 1.5-2.4 1-2.2 1z"
       id="MA" />
    <path
       d="M834.8 264.1l1.7-3.8.5-4.8-6.3 1.1-5.8.3-3.8-16.8-2.3-5.5-1.5-4.6-22.2 4.3-37.6 7.6 2 10.4 4.8-4.9 2.5-.7 1.4-1.5 1.8-2.7 1.6.7 2.6-.2 2.6-2.1 2-1.5 2.1-.6 1.5 1.1 2.7 1.4 1.9 1.8 1.3 1.4 4.8 1.6-.6 2.9 5.8 2.1 2.1-2.6 3.7 2.5-2.1 3.3-.7 3.3-1.8 2.6v2.1l.3.8 2 1.3 3.4 1.1 4.3-.1 3.1 1 2.1.3 1-2.1-1.5-2.1v-1.8l-2.4-2.1-2.1-5.5 1.3-5.3-.2-2.1-1.3-1.3s1.5-1.6 1.5-2.3c0-.6.5-2.1.5-2.1l1.9-1.3 1.9-1.6.5 1-1.5 1.6-1.3 3.7.3 1.1 1.8.3.5 5.5-2.1 1 .3 3.6.5-.2 1.1-1.9 1.6 1.8-1.6 1.3-.3 3.4 2.6 3.4 3.9.5 1.6-.8 3.2 4.2 1 .4zm-14.5.2l1.1 2.5.2 1.8 1.1 1.9s.9-.9.9-1.2c0-.3-.7-3.1-.7-3.1l-.7-2.3z"
       id="MD" />
    <path
       d="M865.8 91.9l1.5.4v-2.6l.8-5.5 2.6-4.7 1.5-4-1.9-2.4v-6l.8-1 .8-2.7-.2-1.5-.2-4.8 1.8-4.8 2.9-8.9 2.1-4.2h1.3l1.3.2v1.1l1.3 2.3 2.7.6.8-.8v-1l4-2.9 1.8-1.8 1.5.2 6 2.4 1.9 1 9.1 29.9h6l.8 1.9.2 4.8 2.9 2.3h.8l.2-.5-.5-1.1 2.8-.5 1.9 2.1 2.3 3.7V85l-2.1 4.7-1.9.6-3.4 3.1-4.8 5.5h-1.3c-.6 0-1-2.1-1-2.1l-1.8.2-1 1.5-2.4 1.5-1 1.5 1.6 1.5-.5.6-.5 2.7-1.9-.2v-1.6l-.3-1.3-1.5.3-1.8-3.2-2.1 1.3 1.3 1.5.3 1.1-.8 1.3.3 3.1.2 1.6-1.6 2.6-2.9.5-.3 2.9-5.3 3.1-1.3.5-1.6-1.5-3.1 3.6 1 3.2-1.5 1.3-.2 4.4-1.1 6.3-2.2-.9-.5-3.1-4-1.1-.2-2.5-11.7-37.43zm36.5 15.6l1.5-1.5 1.4 1.1.6 2.4-1.7.9zm6.7-5.9l1.8 1.9s1.3.1 1.3-.2c0-.3.2-2 .2-2l.9-.8-.8-1.8-2 .7z"
       id="ME" />
    <path
       d="M644.5 211l19.1-1.9.2 1.1 9.9-1.5 12-1.7.1-.6.2-1.5 2.1-3.7 2-1.7-.2-5.1 1.6-1.6 1.1-.3.2-3.6 1.5-3 1.1.6.2.6.8.2 1.9-1-.4-9.1-3.2-8.2-2.3-9.1-2.4-3.2-2.6-1.8-1.6 1.1-3.9 1.8-1.9 5-2.7 3.7-1.1.6-1.5-.6s-2.6-1.5-2.4-2.1c.2-.6.5-5 .5-5l3.4-1.3.8-3.4.6-2.6 2.4-1.6-.3-10-1.6-2.3-1.3-.8-.8-2.1.8-.8 1.6.3.2-1.6-2.6-2.2-1.3-2.6h-2.6l-4.5-1.5-5.5-3.4h-2.7l-.6.6-1-.5-3.1-2.3-2.9 1.8-2.9 2.3.3 3.6 1 .3 2.1.5.5.8-2.6.8-2.6.3-1.5 1.8-.3 2.1.3 1.6.3 5.5-3.6 2.1-.6-.2v-4.2l1.3-2.4.6-2.4-.8-.8-1.9.8-1 4.2-2.7 1.1-1.8 1.9-.2 1 .6.8-.6 2.6-2.3.5v1.1l.8 2.4-1.1 6.1-1.6 4 .6 4.7.5 1.1-.8 2.4-.3.8-.3 2.7 3.6 6 2.9 6.5 1.5 4.8-.8 4.7-1 6-2.4 5.2-.3 2.7-3.2 3.1zm-33.3-72.4l-1.3-1.1-1.8-10.4-3.7-1.3-1.7-2.3-12.6-2.8-2.8-1.1-8.1-2.2-7.8-1-3.9-5.3.7-.5 2.7-.8 3.6-2.3v-1l.6-.6 6-1 2.4-1.9 4.4-2.1.2-1.3 1.9-2.9 1.8-.8 1.3-1.8 2.3-2.3 4.4-2.4 4.7-.5 1.1 1.1-.3 1-3.7 1-1.5 3.1-2.3.8-.5 2.4-2.4 3.2-.3 2.6.8.5 1-1.1 3.6-2.9 1.3 1.3h2.3l3.2 1 1.5 1.1 1.5 3.1 2.7 2.7 3.9-.2 1.5-1 1.6 1.3 1.6.5 1.3-.8h1.1l1.6-1 4-3.6 3.4-1.1 6.6-.3 4.5-1.9 2.6-1.3 1.5.2v5.7l.5.3 2.9.8 1.9-.5 6.1-1.6 1.1-1.1 1.5.5v7l3.2 3.1 1.3.6 1.3 1-1.3.3-.8-.3-3.7-.5-2.1.6-2.3-.2-3.2 1.5h-1.8l-5.8-1.3-5.2.2-1.9 2.6-7 .6-2.4.8-1.1 3.1-1.3 1.1-.5-.2-1.5-1.6-4.5 2.4h-.6l-1.1-1.6-.8.2-1.9 4.4-1 4-3.2 6.9zm-29.6-56.5l1.8-2.1 2.2-.8 5.4-3.9 2.3-.6.5.5-5.1 5.1-3.3 1.9-2.1.9zm86.2 32.1l.6 2.5 3.2.2 1.3-1.2s-.1-1.5-.4-1.6c-.3-.2-1.6-1.9-1.6-1.9l-2.2.2-1.6.2-.3 1.1z"
       id="MI" />
    <path
       d="M464.6 66.79l-.6 3.91v10.27l1.6 5.03 1.9 3.32.5 9.93 1.8 13.45 1.8 7.3.4 6.4v5.3l-1.6 1.8-1.8 1.3v1.5l.9 1.7 4.1 3.5.7 3.2v35.9l60.3-.6 21.2-.7-.5-6-1.8-2.1-7.2-4.6-3.6-5.3-3.4-.9-2-2.8h-3.2l-3.5-3.8-.5-7 .1-3.9 1.5-3-.7-2.7-2.8-3.1 2.2-6.1 5.4-4 1.2-1.4-.2-8 .2-3 2.6-3 3.8-2.9 1.3-.2 4.5-5 1.8-.8 2.3-3.9 2.4-3.6 3.1-2.6 4.8-2 9.2-4.1 3.9-1.8.6-2.3-4.4.4-.7 1.1h-.6l-1.8-3.1-8.9.3-1 .8h-1l-.5-1.3-.8-1.8-2.6.5-3.2 3.2-1.6.8h-3.1l-2.6-1v-2.1l-1.3-.2-.5.5-2.6-1.3-.5-2.9-1.5.5-.5 1-2.4-.5-5.3-2.4-3.9-2.6h-2.9l-1.3-1-2.3.6-1.1 1.1-.3 1.3h-4.8v-2.1l-6.3-.3-.3-1.5h-4.8l-1.6-1.6-1.5-6.1-.8-5.5-1.9-.8-2.3-.5-.6.2-.3 8.2-30.1-.03z"
       id="MN" />
    <path
       d="M593.1 338.7l.5-5.9 4.2-3.4 1.9-1v-2.9l.7-1.6-1.1-1.6-2.4.3-2.1-2.5-1.7-4.5.9-2.6-2-3.2-1.8-4.6-4.6-.7-6.8-5.6-2.2-4.2.8-3.3 2.2-6 .6-3-1.9-1-6.9-.6-1.1-1.9v-4.1l-5.3-3.5-7.2-7.8-2.3-7.3-.5-4.2.7-2.4-2.6-3.1-1.2-2.4-7.7.8-10 .6-48.8 1.2 1.3 2.6-.1 2.2 2.3 3.6 3 3.9 3.1 3 2.6.2 1.4 1.1v2.9l-1.8 1.6-.5 2.3 2.1 3.2 2.4 3 2.6 2.1 1.3 11.6-.8 40 .5 5.7 23.7-.2 23.3-.7 32.5-1.3 2.2 3.7-.8 3.1-3.1 2.5-.5 1.8 5.2.5 4.1-1.1z"
       id="MO" />
    <path
       d="M604.3 472.5l2.6-4.2 1.8.8 6.8-1.9 2.1.3 1.5.8h5.2l.4-1.6-1.7-14.8-2.8-19 1-45.1-.2-16.7.2-6.3-4.8.3-19.6 1.6-13 .4-.2 3.2-2.8 1.3-2.6 5.1.5 1.6.1 2.4-2.9 1.1-3.5 5.1.8 2.3-3 2.5-1 5.7-.6 1.9 1.6 2.5-1.5 1.4 1.5 2.8.3 4.2-1.2 2.5-.2.9.4 5 2 4.5-.1 1.7 2.3 2-.7 3.1-.9.3.6 1.9-8.6 15-.8 8.2.5 1.5 24.2-.7 8.2-.7 1.9-.3.6 1.4-1 7.1 3.3 3.3 2.2 6.4z"
       id="MS" />
    <path
       d="M361.1 70.77l-5.3 57.13-1.3 15.2-59.1-6.6-49-7.1-1.4 11.2-1.9-1.7-.4-2.5-1.3-1.9-3.3 1.5-.7 2.5-2.3.3-3.8-1.6-4.1.1-2.4.7-3.2-1.5-3 .2-2.1 1.9-.9-.6-.7-3.4.7-3.2-2.7-3.2-3.3-2.5-2.5-12.6-.1-5.3-1.6-.8-.6 1-4.5 3.2-1.2-.1-2.3-2.8-.2-2.8 7-17.15-.6-2.67-3.5-1.12-.4-.91-2.7-3.5-4.6-10.41-3.2-1.58-1.8-4.26 1.3-4.63-3.2-7.57 4.4-21.29L222 37.3l18.4 3.4 32.3 5.3 29.3 4 29.2 3.5 30.8 3.07z"
       id="MT" />
    <path
       d="M786.7 357.7L774 350l-3.1-.8-16.6 2.1-1.6-3-2.8-2.2-16.7.5-7.4.9-9.2 4.5-6.8 2.7-6.5 1.2-13.4 1.4.1-4.1 1.7-1.3 2.7-.7.7-3.8 3.9-2.5 3.9-1.5 4.5-3.7 4.4-2.3.7-3.2 4.1-3.8.7 1 2.5.2 2.4-3.6 1.7-.4 2.6.3 1.8-4 2.5-2.4.5-1.8.1-3.5 4.4.1 38.5-5.6 57.5-12.3 2 4.8 3.6 6.5 2.4 2.4.6 2.3-2.4.2.8.6-.3 4.2-2.6 1.3-.6 2.1-1.3 2.9-3.7 1.6-2.4-.3-1.5-.2-1.6-1.3.3 1.3v1h1.9l.8 1.3-1.9 6.3h4.2l.6 1.6 2.3-2.3 1.3-.5-1.9 3.6-3.1 4.8H828l-1.1-.5-2.7.6-5.2 2.4-6.5 5.3-3.4 4.7-1.9 6.5-.5 2.4-4.7.5-5.1 1.5zm49.3-26.2l2.6-2.5 3.2-2.6 1.5-.6.2-2-.6-6.1-1.5-2.3-.6-1.9.7-.2 2.7 5.5.4 4.4-.2 3.4-3.4 1.5-2.8 2.4-1.1 1.2z"
       id="NC" />
    <path
       d="M471 126.4l-.4-6.2-1.8-7.3-1.8-13.61-.5-9.7-1.9-3.18-1.6-5.32V70.68l.6-3.85-1.8-5.54-28.6-.59-18.6-.6-26.5-1.3-25.2-2.16-.9 14.42-4.7 50.94 56.8 3.9 56.9 1.7z"
       id="ND" />
    <path
       d="M470.3 204.3l-1-2.3-.5-1.6-2.9-1.6-4.8-1.5-2.2-1.2-2.6.1-3.7.4-4.2 1.2-6-4.1-2.2-2-10.7.6-41.5-2.4-35.6-2.2-4.3 43.7 33.1 3.3-1.4 21.1 21.7 1 40.6 1.2 43.8.6h4.5l-2.2-3-2.6-3.9.1-2.3-1.4-2.7-1.9-5.2-.4-6.7-1.4-4.1-.5-5-2.3-3.7-1-4.7-2.8-7.9-1-5.3z"
       id="NE" />
    <path
       d="M881.7 141.3l1.1-3.2-2.7-1.2-.5-3.1-4.1-1.1-.3-3-11.7-37.48-.7.08-.6 1.6-.6-.5-1-1-1.5 1.9-.2 2.29.5 8.41 1.9 2.8v4.3l-3.9 4.8-2.4.9v.7l1.1 1.9v8.6l-.8 9.2-.2 4.7 1 1.4-.2 4.7-.5 1.5 1 1.1 5.1-1.2 13.8-3.5 1.7-2.9 4-1.9z"
       id="NH" />
    <path
       d="M823.7 228.3l.1-1.5 2.7-1.3 1.7-2.8 1.7-2.4 3.3-3.2v-1.2l-6.1-4.1-1-2.7-2.7-.3-.1-.9-.7-2.2 2.2-1.1.2-2.9-1.3-1.3.2-1.2 1.9-3.1V193l2.5-3.1 5.6 2.5 6.4 1.9 2.5 1.2.1 1.8-.5 2.7.4 4.5-2.1 1.9-1.1 1 .5.5 2.7-.3 1.1-.8 1.6 3.4.2 9.4.6 1.1-1.1 5.5-3.1 6.5-2.7 4-.8 4.8-2.1 2.4h-.8l-.3-2.7.8-1-.2-1.5-4-.6-4.8-2.3-3.2-2.9-1-2z"
       id="NJ" />
    <path
       d="M270.2 429.4l-16.7-2.6-1.2 9.6-15.8-2 6-39.7 7-53.2 4.4-30.9 34 3.9 37.4 4.4 32 2.8-.3 10.8-1.4-.1-7.4 97.7-28.4-1.8-38.1-3.7.7 6.3z"
       id="NM" />
    <path
       d="M123.1 173.6l38.7 8.5 26 5.2-10.6 53.1-5.4 29.8-3.3 15.5-2.1 11.1-2.6 16.4-1.7 3.1-1.6-.1-1.2-2.6-2.8-.5-1.3-1.1-1.8.1-.9.8-1.8 1.3-.3 7.3-.3 1.5-.5 12.4-1.1 1.8-16.7-25.5-42.1-62.1-12.43-19 8.55-32.6 8.01-31.3z"
       id="NV" />
    <path
       d="M843.4 200l.5-2.7-.2-2.4-3-1.5-6.5-2-6-2.6-.6-.4-2.7-.3-2-1.5-2.1-5.9-3.3-.5-2.4-2.4-38.4 8.1-31.6 6-.5-6.5 1.6-1.2 1.3-1.1 1-1.6 1.8-1.1 1.9-1.8.5-1.6 2.1-2.7 1.1-1-.2-1-1.3-3.1-1.8-.2-1.9-6.1 2.9-1.8 4.4-1.5 4-1.3 3.2-.5 6.3-.2 1.9 1.3 1.6.2 2.1-1.3 2.6-1.1 5.2-.5 2.1-1.8 1.8-3.2 1.6-1.9h2.1l1.9-1.1.2-2.3-1.5-2.1-.3-1.5 1.1-2.1v-1.5h-1.8l-1.8-.8-.8-1.1-.2-2.6 5.8-5.5.6-.8 1.5-2.9 2.9-4.5 2.7-3.7 2.1-2.4 2.4-1.8 3.1-1.2 5.5-1.3 3.2.2 4.5-1.5 7.4-2.2.7 4.9 2.4 6.5.8 5-1 4.2 2.6 4.5.8 2-.9 3.2 3.7 1.7 2.7 10.2v5.8l-.6 10.9.8 5.4.7 3.6 1.5 7.3v8.1l-1.1 2.3 2.1 2.7.5.9-1.9 1.8.3 1.3 1.3-.3 1.5-1.3 2.3-2.6 1.1-.6 1.6.6 2.3.2 7.9-3.9 2.9-2.7 1.3-1.5 4.2 1.6-3.4 3.6-3.9 2.9-7.1 5.3-2.6 1-5.8 1.9-4 1.1-1-.4z"
       id="NY" />
    <path
       d="M663.8 211.2l1.7 15.5 4.8 41.1 3.9-.2 2.3-.8 3.6 1.8 1.7 4.2 5.4.1 1.8 2h1.7l2.4-1.4 3.1.5 1.5 1.3 1.8-2 2.3-1.4 2.4-.4.6 2.7 1.6 1 2.6 2 .8.2 2-.1 1.2-.6v-2.1l1.7-1.5.1-4.8 1.1-4.2 1.9-1.3 1 .7 1 1.1.7.2.4-.4-.9-2.7v-2.2l1.1-1.4 2.5-3.6 1.3-1.5 2.2.5 2.1-1.5 3-3.3 2.2-3.7.2-5.4.5-5V230l-1.2-3.2 1.2-1.8 1.3-1.2-.6-2.8-4.3-25.6-6.2 3.7-3.9 2.3-3.4 3.7-4 3.9-3.2.8-2.9.5-5.5 2.6-2.1.2-3.4-3.1-5.2.6-2.6-1.5-2.2-1.3z"
       id="OH" />
    <path
       d="M411.9 334.9l-1.8 24.3-.9 18 .2 1.6 4 3.6 1.7.9h.9l.9-2.1 1.5 1.9 1.6.1.3-.2.2-1.1 2.8 1.4-.4 3.5 3.8.5 2.5 1 4.2.6 2.3 1.6 2.5-1.7 3.5.7 2.2 3.1 1.2.1v2.3l2.1.7 2.5-2.1 1.8.6 2.7.1.7 2.3 4.4 1.8 1.7-.3 1.9-4.2h1.3l1.1 2.1 4.2.8 3.4 1.3 3 .8 1.6-.7.7-2.7h4.5l1.9.9 2.7-1.9h1.4l.6 1.4h3.6l2-1.8 2.3.6 1.7 2.2 3 1.7 3.4.9 1.9 1.2-.3-37.6-1.4-10.9-.1-8.6-1.5-6.6-.6-6.8.1-4.3-12.6.3-46.3-.5-44.7-2.1-41.5-1.8-.4 10.7z"
       id="OK" />
    <path
       d="M67.44 158.9l28.24 7.2 27.52 6.5 17 3.7 8.8-35.1 1.2-4.4 2.4-5.5-.7-1.3-2.5.1-1.3-1.8.6-1.5.4-3.3 4.7-5.7 1.9-.9.9-.8.7-2.7.8-1.1 3.9-5.7 3.7-4 .2-3.26-3.4-2.49-1.2-4.55-13.1-3.83L132.9 85l-14.8.37-1.1-1.31-5.1 1.84-4.5-.48-2.4-1.58-1.3.54-4.68-.29-1.96-1.43-4.84-1.77-1.1-.07-4.45-1.27-1.76 1.52-6.26-.24-5.31-3.85.21-9.28-2.05-3.5-4.1-.6-.7-2.5-2.4-.5-5.8 2.1-2.3 6.5-3.2 10-3.2 6.5-5 14.1-6.5 13.6-8.1 12.6-1.9 2.9-.8 8.6-1.3 6 2.71 3.5z"
       id="OR" />
    <path
       d="M736.6 192.2l1.3-.5 5.7-5.5.7 6.9 33.5-6.5 36.9-7.8 2.3 2.3 3.1.4 2 5.6 2.4 1.9 2.8.4.1.1-2.6 3.2v3.1l-1.9 3.1-.2 1.9 1.3 1.3-.2 1.9-2.4 1.1 1 3.4.2 1.1 2.8.3.9 2.5 5.9 3.9v.4l-3.1 3-1.5 2.2-1.7 2.8-2.7 1.2-1.4.3-2.1 1.3-1.6 1.4-22.4 4.3L757 241l-11.3 1.4-3.9.7-5.1-22.4-4.3-25.9z"
       id="PA" />
    <path
       d="M873.6 175.7l-.8-4.4-1.6-6 5.7-1.5 1.5 1.3 3.4 4.3 2.8 4.4-2.8 1.4-1.3-.2-1.1 1.8-2.4 1.9-2.8 1.1z"
       id="RI" />
    <path
       d="M759 413.6l-2.1-1-1.9-5.6-2.5-2.3-2.5-.5-1.5-4.6-3-6.5-4.2-1.8-1.9-1.8-1.2-2.6-2.4-2-2.3-1.3-2.2-2.9-3.2-2.4-4.4-1.7-.4-1.4-2.3-2.8-.5-1.5-3.8-5.4-3.4.1-3.9-2.5-1.2-1.2-.2-1.4.6-1.6 2.7-1.3-.8-2 6.4-2.7 9.2-4.5 7.1-.9 16.4-.5 2.3 1.9 1.8 3.5 4.6-.8 12.6-1.5 2.7.8 12.5 7.4 10.1 8.3-5.3 5.4-2.6 6.1-.5 6.3-1.6.8-1.1 2.7-2.4.6-2.1 3.6-2.7 2.7-2.3 3.4-1.6.8-3.6 3.4-2.9.2 1 3.2-5 5.3-2.3 1.6z"
       id="SC" />
    <path
       d="M471 181.1l-.9 3.2.4 3 2.6 2-1.2 5.4-1.8 4.1 1.5 3.3.7 1.1-1.3.1-.7-1.6-.6-2-3.3-1.8-4.8-1.5-2.5-1.3-2.9.1-3.9.4-3.8 1.2-5.3-3.8-2.7-2.4-10.9.8-41.5-2.4-35.6-2.2L354 162l2.8-34 .4-5 56.9 3.9 56.9 1.7v2.7l-1.3 1.5-2 1.5-.1 2.2 1.1 2.2 4.1 3.4.5 2.7v35.9z"
       id="SD" />
    <path
       d="M670.8 359.6l-13.1 1.2-23.3 2.2-37.6 2.7-11.8.4.9-.6.9-4.5-1.2-3.6 3.9-2.3.4-2.5 1.2-4.3 3-9.5.5-5.6.3-.2 12.3-.2 13.6-.8.1-3.9 3.5-.1 30.4-3.3 54-5.2 10.3-1.5 7.6-.2 2.4-1.9 1.3.3-.1 3.3-.4 1.6-2.4 2.2-1.6 3.6-2-.4-2.4.9-2.2 3.3-1.4-.2-.8-1.2-1.1.4-4.3 4-.8 3.1-4.2 2.2-4.3 3.6-3.8 1.5-4.4 2.8-.6 3.6-2.5.5-2 1.7-.2 4.8z"
       id="TN" />
    <path
       d="M282.8 425.6l37 3.6 29.3 1.9 7.4-97.7 54.4 2.4-1.7 23.3-1 18 .2 2 4.4 4.1 2 1.1h1.8l.5-1.2.7.9 2.4.2 1.1-.6v-.2l1 .5-.4 3.7 4.5.7 2.4.9 4.2.7 2.6 1.8 2.8-1.9 2.7.6 2.2 3.1.8.1v2.1l3.3 1.1 2.5-2.1 1.5.5 2.1.1.6 2.1 5.2 2 2.3-.5 1.9-4h.1l1.1 1.9 4.6.9 3.4 1.3 3.2 1 2.4-1.2.7-2.3h3.6l2.1 1 3-2h.4l.5 1.4h4.7l1.9-1.8 1.3.4 1.7 2.1 3.3 1.9 3.4 1 2.5 1.4 2.7 2 3.1-1.2 2.1.8.7 20 .7 9.5.6 4.1 2.6 4.4.9 4.5 4.2 5.9.3 3.1.6.8-.7 7.7-2.9 4.8 1.3 2.6-.5 2.4-.8 7.2-1.3 3 .3 4.2-5.6 1.6-9.9 4.5-1 1.9-2.6 1.9-2.1 1.5-1.3.8-5.7 5.3-2.7 2.1-5.3 3.2-5.7 2.4-6.3 3.4-1.8 1.5-5.8 3.6-3.4.6-3.9 5.5-4 .3-1 1.9 2.3 1.9-1.5 5.5-1.3 4.5-1.1 3.9-.8 4.5.8 2.4 1.8 7 1 6.1 1.8 2.7-1 1.5-3.1 1.9-5.7-3.9-5.5-1.1-1.3.5-3.2-.6-4.2-3.1-5.2-1.1-7.6-3.4-2.1-3.9-1.3-6.5-3.2-1.9-.6-2.3.6-.6.3-3.4-1.3-.6-.6-1 1.3-4.4-1.6-2.3-3.2-1.3-3.4-4.4-3.6-6.6-4.2-2.6.2-1.9-5.3-12.3-.8-4.2-1.8-1.9-.2-1.5-6-5.3-2.6-3.1v-1.1l-2.6-2.1-6.8-1.1-7.4-.6-3.1-2.3-4.5 1.8-3.6 1.5-2.3 3.2-1 3.7-4.4 6.1-2.4 2.4-2.6-1-1.8-1.1-1.9-.6-3.9-2.3v-.6l-1.8-1.9-5.2-2.1-7.4-7.8-2.3-4.7v-8.1l-3.2-6.5-.5-2.7-1.6-1-1.1-2.1-5-2.1-1.3-1.6-7.1-7.9-1.3-3.2-4.7-2.3-1.5-4.4-2.6-2.9-1.7-.5zm174.4 141.7l-.6-7.1-2.7-7.2-.6-7 1.5-8.2 3.3-6.9 3.5-5.4 3.2-3.6.6.2-4.8 6.6-4.4 6.5-2 6.6-.3 5.2.9 6.1 2.6 7.2.5 5.2.2 1.5z"
       id="TX" />
    <path
       d="M228.4 305.9l24.6 3.6 1.9-13.7 7-50.5 2.3-22-32.2-3.5 2.2-13.1 1.8-10.6-34.7-6.1-12.5-2.5-10.6 52.9-5.4 30-3.3 15.4-1.7 9.2z"
       id="UT" />
    <path
       d="M834.7 265.2l-.2 2.8-2.9 3.8-.4 4.6.5 3.4-1.8 5-2.2 1.9-1.5-4.6.4-5.4 1.6-4.2.7-3.3-.1-1.7zm-60.3 44.6l-38.6 5.6-4.8-.1-2.2-.3-2.5 1.9-7.3.1-10.3 1.6-6.7.6 4.1-2.6 4.1-2.3v-2.1l5.7-7.3 4.1-3.7 2.2-2.5 3.6 4.3 3.8.9 2.7-1 2-1.5 2.4 1.2 4.6-1.3 1.7-4.4 2.4.7 3.2-2.3 1.6.4 2.8-3.2.2-2.7-.8-1.2 4.8-10.5 1.8-5.2.5-4.7.7-.2 1.1 1.7 1.5 1.2 3.9-.2 1.7-8.1 3-.6.8-2.6 2.8-2.2 1.1-2.1 1.8-4.3.1-4.6 3.6 1.4 6.6 3.1.3-5.2 3.4 1.2-.6 2.9 8.6 3.1 1.4 1.8-.8 3.3-1.3 1.3-.5 1.7.5 2.4 2 1.3 3.9 1.4 2.9 1 4.9.9 2.2 2.1 3.2.4.9 1.2-.4 4.7 1.4 1.1-.5 1.9 1.2.8-.2 1.4-2.7-.1.1 1.6 2.3 1.5.1 1.4 1.8 1.8.5 2.5-2.6 1.4 1.6 1.5 5.8-1.7 3.7 6.2z"
       id="VA" />
    <path
       d="M832.7 111.3l2.4 6.5.8 5.3-1 3.9 2.5 4.4.9 2.3-.7 2.6 3.3 1.5 2.9 10.8v5.3l11.5-2.1-1-1.1.6-1.9.2-4.3-1-1.4.2-4.7.8-9.3v-8.5l-1.1-1.8v-1.6l2.8-1.1 3.5-4.4v-3.6l-1.9-2.7-.3-5.79-26.1 6.79z"
       id="VT" />
    <path
       d="M74.5 67.7l-2.3-4.3-4.1-.7-.4-2.4-2.5-.6-2.9-.5-1.8 1-2.3-2.9.3-2.9 2.7-.3 1.6-4-2.6-1.1.2-3.7 4.4-.6-2.7-2.7-1.5-7.1.6-2.9v-7.9l-1.8-3.2 2.3-9.4 2.1.5 2.4 2.9 2.7 2.6 3.2 1.9 4.5 2.1 3.1.6 2.9 1.5 3.4 1 2.3-.2V22l1.3-1.1 2.1-1.3.3 1.1.3 1.8-2.3.5-.3 2.1 1.8 1.5 1.1 2.4.6 1.9 1.5-.2.2-1.3-1-1.3-.5-3.2.8-1.8-.6-1.5V19l1.8-3.6-1.1-2.6L91.9 8l.3-.8 1.4-.8L98 7.9l9.7 2.7 8.6 1.9 20 5.7 23 5.7 15 3.49-4.8 17.56-4.5 20.83-3.4 16.25-.4 9.18-12.9-3.72-15.3-3.47-14.5.32-1.1-1.53-5.7 2.09-3.9-.42-2.6-1.79-1.7.65-4.15-.25-1.72-1.32-5.16-1.82-1.18-.16-4.8-1.39-1.92 1.65-5.65-.25-4.61-3.35zm9.6-55.4l2-.2.5 1.4 1.5-1.6h2.3l.8 1.5-1.5 1.7.6.8-.7 2-1.4.4s-.9.1-.9-.2c0-.3 1.5-2.6 1.5-2.6l-1.7-.6-.3 1.5-.7.6-1.5-2.3z"
       id="WA" />
    <path
       d="M541.4 109.9l2.9.5 2.9-.6 7.4-3.2 2.9-1.9 2.1-.8 1.9 1.5-1.1 1.1-1.9 3.1-.6 1.9 1 .6 1.8-1 1.1-.2 2.7.8.6 1.1 1.1.2.6-1.1 4 5.3 8.2 1.2 8.2 2.2 2.6 1.1 12.3 2.6 1.6 2.3 3.6 1.2L609 138l1.6 1.4 1.5.9-1.1 2.3-1.8 1.6-2.1 4.7-1.3 2.4.2 1.8 1.5.3 1.1-1.9 1.5-.8.8-2.3 1.9-1.8 2.7-4 4.2-6.3.8-.5.3 1-.2 2.3-2.9 6.8-2.7 5.7-.5 3.2-.6 2.6.8 1.3-.2 2.7-1.9 2.4-.5 1.8.6 3.6.6 3.4-1.5 2.6-.8 2.9-1 3.1 1.1 2.4.6 6.1 1.6 4.5-.2 3-15.9 1.8-17.5 1H567l-.7-1.5-2.9-.4-2.6-1.3-2.3-3.7-.3-3.6 2-2.9-.5-1.4-2.1-2.2-.8-3.3-.6-6.8-2.1-2.5-7-4.5-3.8-5.4-3.4-1-2.2-2.8h-3.2l-2.9-3.3-.5-6.5.1-3.8 1.5-3.1-.8-3.2-2.5-2.8 1.8-5.4 5.2-3.8 1.6-1.9-.2-8.1.2-2.8 2.4-2.8z"
       id="WI" />
    <path
       d="M758.9 254.3l5.8-6 2.6-.8 1.6-1.5 1.5-2.2 1.1.3 3.1-.2 4.6-3.6 1.5-.5 1.3 1 2.6 1.2 3 3-.4 4.3-5.4-2.6-4.8-1.8-.1 5.9-2.6 5.7-2.9 2.4-.8 2.3-3 .5-1.7 8.1-2.8.2-1.1-1-1.2-2-2.2.5-.5 5.1-1.8 5.1-5 11 .9 1.4-.1 2-2.2 2.5-1.6-.4-3.1 2.3-2.8-.8-1.8 4.9-3.8 1-2.5-1.3-2.5 1.9-2.3.7-3.2-.8-3.8-4.5-3.5-2.2-2.5-2.5-2.9-3.7-.5-2.3-2.8-1.7-.6-1.3-.2-5.6.3.1 2.4-.2 1.8-1V275l1.7-1.5.1-5.2.9-3.6 1.1-.7.4.3 1 1.1 1.7.5 1.1-1.3-1-3.1v-1.6l3.1-4.6 1.2-1.3 2 .5 2.6-1.8 3.1-3.4 2.4-4.1.2-5.6.5-4.8v-4.9l-1.1-3 .9-1.3.8-.7 4.3 19.3 4.3-.8 11.2-1.3z"
       id="WV" />
    <path
       d="M353 161.9l-1.5 25.4-4.4 44-2.7-.3-83.3-9.1-27.9-3 2-12 6.9-41 3.8-24.2 1.3-11.2 48.2 7 59.1 6.5z"
       id="WY" />
    <path
       d="M807,260 l-6.26,-3.18 -5.97,3.6 1.09,-6.93 -5.27,-4.56 6.93,-1.11 2.71,-6.42 3.19,6.25 6.94,0.59 -4.96,4.97z"
       stroke="#FFFFFF"
       id="DC" />
  </g>
  <g
     id="g283"
     font-weight="bold"
     font-family="Arial">
    <g
       fill="#FFFFFF"
       font-size="28"
       id="textw">
      <text
         style="font-size:18.6667px;text-align:center;letter-spacing:0px;word-spacing:0px;text-anchor:middle;fill:#ffffff"
         y="484"
         x="119.46682"
         id="AKn"><tspan
           y="484"
           x="119.46682"
           id="tspan488"
           sodipodi:role="line">AK</tspan><tspan
           rotate="0 0"
           dy="0"
           dx="0"
           y="507.33337"
           x="119.46682"
           id="tspan490"
           sodipodi:role="line">15</tspan></text>
      <text
         style="font-size:18.6667px;letter-spacing:0px;word-spacing:0px"
         fill="#000000"
         y="559"
         x="280.87897"
         id="HIn"><tspan
           rotate="0 0 0"
           dy="0"
           dx="0"
           style="font-size:18.6667px;text-align:center;text-anchor:middle;fill:#000000"
           y="559"
           x="280.87897"
           id="tspan492"
           sodipodi:role="line">HI</tspan><tspan
           rotate="0 0 0"
           style="font-size:18.6667px;text-align:center;text-anchor:middle;fill:#000000"
           y="582.33337"
           x="280.87897"
           id="tspan494"
           sodipodi:role="line">24</tspan></text>
      <text
         style="font-size:18.6667px;text-align:center;letter-spacing:0px;word-spacing:0px;text-anchor:middle;fill:#ffffff"
         y="45.028618"
         x="123.95943"
         id="WAn"><tspan
           y="45.028618"
           x="123.95943"
           id="tspan350"
           sodipodi:role="line">WA</tspan><tspan
           y="68.361992"
           x="123.95943"
           id="tspan352"
           sodipodi:role="line">89</tspan></text>
      <text
         style="font-size:18.6667px;letter-spacing:0px;word-spacing:0px;stroke-width:1.83601"
         y="119.34409"
         x="98.972305"
         id="ORn"><tspan
           style="font-size:18.6667px;text-align:center;text-anchor:middle;fill:#ffffff;stroke-width:1.83601"
           rotate="0 0 0"
           dy="0"
           dx="0"
           y="119.34409"
           x="98.972305"
           id="tspan338"
           sodipodi:role="line">OR</tspan><tspan
           style="font-size:18.6667px;text-align:center;text-anchor:middle;fill:#ffffff;stroke-width:1.83601"
           rotate="0 0 0"
           y="142.67743"
           x="98.972305"
           id="tspan340"
           sodipodi:role="line">61</tspan></text>
      <text
         style="font-size:18.6667px;letter-spacing:0px;word-spacing:0px;stroke-width:1.66735"
         y="283.86383"
         x="75.993614"
         id="CAn"><tspan
           rotate="0 0 0"
           dy="0"
           dx="0"
           style="font-size:18.6667px;text-align:center;text-anchor:middle;fill:#ffffff;stroke-width:1.66735"
           y="283.86383"
           x="75.993614"
           id="tspan330"
           sodipodi:role="line">CA</tspan><tspan
           rotate="0 0 0 0"
           style="font-size:18.6667px;text-align:center;text-anchor:middle;fill:#ffffff;stroke-width:1.66735"
           y="307.19717"
           x="75.993614"
           id="tspan332"
           sodipodi:role="line">415</tspan></text>
      <text
         style="font-size:18.6667px;letter-spacing:0px;word-spacing:0px;stroke-width:1.67294"
         y="230.80905"
         x="131.02548"
         id="NVn"><tspan
           style="font-size:18.6667px;text-align:center;text-anchor:middle;fill:#ffffff;stroke-width:1.67294"
           rotate="0 0 0"
           dy="0"
           dx="0"
           y="230.80905"
           x="131.02548"
           id="tspan334"
           sodipodi:role="line">NV</tspan><tspan
           style="font-size:18.6667px;text-align:center;text-anchor:middle;fill:#ffffff;stroke-width:1.67294"
           rotate="0 0 0"
           y="254.14238"
           x="131.02548"
           id="tspan336"
           sodipodi:role="line">36</tspan></text>
      <text
         style="font-size:18.66666667px;text-align:center;text-anchor:middle;fill:#ffffff;stroke-width:2.1353;"
         y="250.79248"
         x="221.14891"
         id="UTn"><tspan
           style="stroke-width:2.1353;font-size:18.66666667px;"
           y="250.79248"
           x="221.14891"
           id="tspan314"
           sodipodi:role="line">UT</tspan><tspan
           style="stroke-width:2.1353;font-size:18.66666667px;"
           y="282.82199"
           x="221.14891"
           id="tspan316"
           sodipodi:role="line">29</tspan></text>
      <text
         style="font-size:18.6667px;text-align:center;letter-spacing:0px;word-spacing:0px;text-anchor:middle;fill:#ffffff"
         y="140.03703"
         x="183.69168"
         id="IDn"><tspan
           y="140.03703"
           x="183.69168"
           id="tspan354"
           sodipodi:role="line">ID</tspan><tspan
           y="163.37041"
           x="183.69168"
           id="tspan356"
           sodipodi:role="line">20</tspan></text>
      <text
         style="font-size:18.6667px;letter-spacing:0px;word-spacing:0px"
         y="79.035355"
         x="273.28589"
         id="MTn"><tspan
           rotate="0 0 0"
           dy="0"
           dx="0"
           style="text-align:center;text-anchor:middle;fill:#ffffff"
           y="79.035355"
           x="273.28589"
           id="tspan358"
           sodipodi:role="line">MT</tspan><tspan
           rotate="0 0 0"
           style="text-align:center;text-anchor:middle;fill:#ffffff"
           y="102.36873"
           x="273.28589"
           id="tspan360"
           sodipodi:role="line">19</tspan></text>
      <text
         style="font-size:18.66666667px;text-align:center;letter-spacing:0px;word-spacing:0px;text-anchor:middle;fill:#ffffff;stroke-width:1.93103;"
         y="176.03616"
         x="298.61047"
         id="WYn"><tspan
           style="stroke-width:1.93103;font-size:18.66666667px;"
           y="176.03616"
           x="298.61047"
           id="tspan326"
           sodipodi:role="line">WY</tspan><tspan
           style="stroke-width:1.93103;font-size:18.66666667px;"
           y="205.00166"
           x="298.61047"
           id="tspan328"
           sodipodi:role="line">14</tspan></text>
      <text
         transform="scale(1.0552918,0.94760521)"
         style="font-size:18.6667px;text-align:center;text-anchor:middle;fill:#ffffff;stroke-width:2.06338"
         y="284.27722"
         x="305.53705"
         id="COn"><tspan
           style="font-size:18.6667px;stroke-width:2.06338"
           y="284.27722"
           x="305.53705"
           id="tspan318"
           sodipodi:role="line">CO</tspan><tspan
           style="font-size:18.6667px;stroke-width:2.06338"
           y="307.61057"
           x="305.53705"
           id="tspan320"
           sodipodi:role="line">67</tspan></text>
      <text
         style="font-size:18.66666667px;text-align:center;text-anchor:middle;fill:#ffffff;stroke-width:1.96735;"
         y="363.33124"
         x="202.16183"
         id="AZn"><tspan
           style="stroke-width:1.96735;font-size:18.66666667px;"
           y="363.33124"
           x="202.16183"
           id="tspan310"
           sodipodi:role="line">AZ</tspan><tspan
           style="stroke-width:1.96735;font-size:18.66666667px;"
           y="392.84149"
           x="202.16183"
           id="tspan312"
           sodipodi:role="line">67</tspan></text>
      <text
         style="font-size:18.6667px;fill:#ffffff;stroke-width:2.00941"
         y="366.70938"
         x="302.81735"
         id="NMn"><tspan
           style="font-size:18.6667px;text-align:center;text-anchor:middle;fill:#ffffff;stroke-width:2.00941"
           id="tspan302"
           y="366.70938"
           x="302.81735"
           sodipodi:role="line">NM</tspan><tspan
           style="font-size:18.6667px;text-align:center;text-anchor:middle;fill:#ffffff;stroke-width:2.00941"
           id="tspan308"
           y="390.04272"
           x="302.81735"
           sodipodi:role="line">34</tspan></text>
      <text
         style="font-size:18.6667px;stroke-width:2.2194"
         y="449.50641"
         x="428.07425"
         id="TXn"><tspan
           style="font-size:18.6667px;text-align:center;text-anchor:middle;fill:#ffffff;stroke-width:2.2194"
           y="449.50641"
           x="428.07425"
           id="tspan322"
           sodipodi:role="line">TX</tspan><tspan
           style="font-size:18.6667px;text-align:center;text-anchor:middle;fill:#ffffff;stroke-width:2.2194"
           y="472.83975"
           x="428.07425"
           id="tspan324"
           sodipodi:role="line">228</tspan></text>
      <text
         style="font-size:18.6667px;letter-spacing:0px;word-spacing:0px"
         y="355.02524"
         x="458.48438"
         id="OKn"><tspan
           rotate="0 0 0"
           dy="0"
           dx="0"
           style="font-size:18.6667px;text-align:center;text-anchor:middle;fill:#ffffff"
           y="355.02524"
           x="458.48438"
           id="tspan378"
           sodipodi:role="line">OK</tspan><tspan
           rotate="0 0 0"
           style="font-size:18.6667px;text-align:center;text-anchor:middle;fill:#ffffff"
           y="378.35861"
           x="458.48438"
           id="tspan380"
           sodipodi:role="line">37</tspan></text>
      <text
         style="font-size:18.6667px;text-align:center;letter-spacing:0px;word-spacing:0px;text-anchor:middle;fill:#ffffff"
         y="286.02863"
         x="433.81598"
         id="KSn"><tspan
           y="286.02863"
           x="433.81598"
           id="tspan374"
           sodipodi:role="line">KS</tspan><tspan
           y="309.36197"
           x="433.81598"
           id="tspan376"
           sodipodi:role="line">39</tspan></text>
      <text
         style="font-size:18.6667px;letter-spacing:0px;word-spacing:0px"
         y="215.02863"
         x="412.49014"
         id="NEn"><tspan
           rotate="0 0 0"
           dy="0"
           dx="0"
           style="font-size:18.6667px;text-align:center;text-anchor:middle;fill:#ffffff"
           y="215.02863"
           x="412.49014"
           id="tspan370"
           sodipodi:role="line">NE</tspan><tspan
           rotate="0 0 0"
           style="font-size:18.6667px;text-align:center;text-anchor:middle;fill:#ffffff"
           y="238.362"
           x="412.49014"
           id="tspan372"
           sodipodi:role="line">29</tspan></text>
      <text
         style="font-size:18.6667px;letter-spacing:0px;word-spacing:0px"
         y="153.02863"
         x="415.35184"
         id="SDn"><tspan
           rotate="0 0 0"
           dy="0"
           dx="0"
           style="font-size:18.6667px;text-align:center;text-anchor:middle;fill:#ffffff"
           y="153.02863"
           x="415.35184"
           id="tspan366"
           sodipodi:role="line">SD</tspan><tspan
           rotate="0 0 0"
           style="font-size:18.6667px;text-align:center;text-anchor:middle;fill:#ffffff"
           y="176.362"
           x="415.35184"
           id="tspan368"
           sodipodi:role="line">16</tspan></text>
      <text
         style="font-size:18.6667px;text-align:center;letter-spacing:0px;word-spacing:0px;text-anchor:middle;fill:#ffffff"
         y="84.03199"
         x="410.91135"
         id="NDn"><tspan
           y="84.03199"
           x="410.91135"
           id="tspan362"
           sodipodi:role="line">ND</tspan><tspan
           y="107.36533"
           x="410.91135"
           id="tspan364"
           sodipodi:role="line">14</tspan></text>
      <text
         style="font-size:18.6667px;letter-spacing:0px;word-spacing:0px"
         y="129"
         x="504.0332"
         id="MNn"><tspan
           style="font-size:18.6667px;text-align:center;text-anchor:middle;fill:#ffffff"
           rotate="0 0 0"
           dy="0"
           dx="0"
           y="129"
           x="504.0332"
           id="tspan382"
           sodipodi:role="line">MN</tspan><tspan
           style="font-size:18.6667px;text-align:center;text-anchor:middle;fill:#ffffff"
           rotate="0 0 0"
           y="152.33333"
           x="504.0332"
           id="tspan384"
           sodipodi:role="line">75</tspan></text>
      <text
         style="font-size:18.6667px;text-align:center;letter-spacing:0px;word-spacing:0px;text-anchor:middle;fill:#ffffff"
         y="152.01852"
         x="578.8985"
         id="WIn"><tspan
           y="152.01852"
           x="578.8985"
           id="tspan406"
           sodipodi:role="line">WI</tspan><tspan
           y="175.35185"
           x="578.8985"
           id="tspan408"
           sodipodi:role="line">84</tspan></text>
      <text
         style="font-size:18.6667px;letter-spacing:0px;word-spacing:0px"
         y="250.01852"
         x="592.77844"
         id="ILn"><tspan
           style="font-size:18.6667px;text-align:center;text-anchor:middle;fill:#ffffff"
           rotate="0 0 0"
           dy="0"
           dx="0"
           y="250.01852"
           x="592.77844"
           id="tspan410"
           sodipodi:role="line">IL</tspan><tspan
           style="font-size:18.6667px;text-align:center;text-anchor:middle;fill:#ffffff"
           rotate="0 0 0 0"
           y="273.3519"
           x="592.77844"
           id="tspan412"
           sodipodi:role="line">155</tspan></text>
      <text
         style="font-size:18.6667px;letter-spacing:0px;word-spacing:0px"
         y="209.02525"
         x="520.58881"
         id="IAn"><tspan
           style="font-size:18.6667px;text-align:center;text-anchor:middle;fill:#ffffff"
           rotate="0 0 0"
           dy="0"
           dx="0"
           y="209.02525"
           x="520.58881"
           id="tspan386"
           sodipodi:role="line">IA</tspan><tspan
           style="font-size:18.6667px;text-align:center;text-anchor:middle;fill:#ffffff"
           rotate="0 0 0"
           y="232.35863"
           x="520.58881"
           id="tspan388"
           sodipodi:role="line">41</tspan></text>
      <text
         style="font-size:18.6667px;text-align:center;letter-spacing:0px;word-spacing:0px;text-anchor:middle;fill:#ffffff"
         y="290.02695"
         x="535.17407"
         id="MOn"><tspan
           y="290.02695"
           x="535.17407"
           id="tspan390"
           sodipodi:role="line">MO</tspan><tspan
           y="313.36029"
           x="535.17407"
           id="tspan392"
           sodipodi:role="line">68</tspan></text>
      <text
         style="font-size:18.6667px;text-align:center;letter-spacing:0px;word-spacing:0px;text-anchor:middle;fill:#ffffff"
         y="370.02356"
         x="540.6283"
         id="ARn"><tspan
           y="370.02356"
           x="540.6283"
           id="tspan394"
           sodipodi:role="line">AR</tspan><tspan
           y="393.3569"
           x="540.6283"
           id="tspan396"
           sodipodi:role="line">31</tspan></text>
      <text
         style="font-size:18.6667px;text-align:center;letter-spacing:0px;word-spacing:0px;text-anchor:middle;fill:#ffffff"
         y="447.00842"
         x="543.69916"
         id="LAn"><tspan
           y="447.00842"
           x="543.69916"
           id="tspan398"
           sodipodi:role="line">LA</tspan><tspan
           y="470.34177"
           x="543.69916"
           id="tspan400"
           sodipodi:role="line">54</tspan></text>
      <text
         style="font-size:18.6667px;text-align:center;letter-spacing:0px;word-spacing:0px;text-anchor:middle;fill:#ffffff"
         y="414.02356"
         x="596.47217"
         id="MSn"><tspan
           y="414.02356"
           x="596.47217"
           id="tspan402"
           sodipodi:role="line">MS</tspan><tspan
           y="437.3569"
           x="596.47217"
           id="tspan404"
           sodipodi:role="line">36</tspan></text>
      <text
         style="font-size:18.6667px;letter-spacing:0px;word-spacing:0px"
         y="404"
         x="651.3269"
         id="ALn"><tspan
           rotate="0 0 0"
           dy="0"
           dx="0"
           style="font-size:18.6667px;text-align:center;text-anchor:middle;fill:#ffffff"
           y="404"
           x="651.3269"
           id="tspan422"
           sodipodi:role="line">AL</tspan><tspan
           rotate="0 0 0"
           style="font-size:18.6667px;text-align:center;text-anchor:middle;fill:#ffffff"
           y="427.33337"
           x="651.3269"
           id="tspan424"
           sodipodi:role="line">52</tspan></text>
      <text
         style="font-size:18.6667px;text-align:center;letter-spacing:0px;word-spacing:0px;text-anchor:middle;fill:#ffffff"
         y="405.02356"
         x="713.53607"
         id="GAn"><tspan
           y="405.02356"
           x="713.53607"
           id="tspan426"
           sodipodi:role="line">GA</tspan><tspan
           y="428.3569"
           x="713.53607"
           id="tspan428"
           sodipodi:role="line">105</tspan></text>
      <text
         style="font-size:18.6667px;text-align:center;letter-spacing:0px;word-spacing:0px;text-anchor:middle;fill:#ffffff"
         y="503"
         x="765.91602"
         id="FLn"><tspan
           y="503"
           x="765.91602"
           id="tspan484"
           sodipodi:role="line">FL</tspan><tspan
           y="526.33337"
           x="765.91602"
           id="tspan486"
           sodipodi:role="line">219</tspan></text>
      <text
         style="font-size:18.6667px;text-align:center;letter-spacing:0px;word-spacing:0px;text-anchor:middle;fill:#ffffff"
         y="372"
         x="761.15887"
         id="SCn"><tspan
           y="372"
           x="761.15887"
           id="tspan446"
           sodipodi:role="line">SC</tspan><tspan
           y="395.33337"
           x="761.15887"
           id="tspan448"
           sodipodi:role="line">54</tspan></text>
      <text
         style="font-size:18.6667px;text-align:center;letter-spacing:0px;word-spacing:0px;text-anchor:middle;fill:#ffffff"
         y="326"
         x="794.91797"
         id="NCn"><tspan
           y="326"
           x="794.91797"
           id="tspan450"
           sodipodi:role="line">NC</tspan><tspan
           y="349.33337"
           x="794.91797"
           id="tspan452"
           sodipodi:role="line">110</tspan></text>
      <text
         style="font-size:13.3333px;text-align:center;letter-spacing:0px;word-spacing:0px;text-anchor:middle;fill:#ffffff"
         y="339.02356"
         x="649.37646"
         id="TNn"><tspan
           y="339.02356"
           x="649.37646"
           id="tspan414"
           sodipodi:role="line">TN</tspan><tspan
           y="355.69022"
           x="649.37646"
           id="tspan416"
           sodipodi:role="line">64</tspan></text>
      <text
         style="font-size:18.6667px;text-align:center;letter-spacing:0px;word-spacing:0px;text-anchor:middle;fill:#ffffff"
         y="293"
         x="678.56445"
         id="KYn"><tspan
           y="293"
           x="678.56445"
           id="tspan434"
           sodipodi:role="line">KY</tspan><tspan
           y="316.33337"
           x="678.56445"
           id="tspan436"
           sodipodi:role="line">54</tspan></text>
      <text
         style="font-size:18.6667px;letter-spacing:0px;word-spacing:0px;fill:#ffffff"
         y="249.02188"
         x="645.25861"
         id="INn"><tspan
           style="font-size:18.6667px;text-align:center;text-anchor:middle"
           rotate="0 0 0"
           dy="0"
           dx="0"
           y="249.02188"
           x="645.25861"
           id="tspan418"
           sodipodi:role="line">IN</tspan><tspan
           style="font-size:18.6667px;text-align:center;text-anchor:middle"
           rotate="0 0 0"
           y="272.35526"
           x="645.25861"
           id="tspan420"
           sodipodi:role="line">82</tspan></text>
      <text
         style="font-size:18.6667px;letter-spacing:0px;word-spacing:0px"
         y="173"
         x="656.19861"
         id="MIn"><tspan
           rotate="0 0 0"
           dy="0"
           dx="0"
           style="font-size:18.6667px;text-align:center;text-anchor:middle;fill:#ffffff"
           y="173"
           x="656.19861"
           id="tspan430"
           sodipodi:role="line">MI</tspan><tspan
           rotate="0 0 0 0"
           style="font-size:18.6667px;text-align:center;text-anchor:middle;fill:#ffffff"
           y="196.33337"
           x="656.19861"
           id="tspan432"
           sodipodi:role="line">125</tspan></text>
      <text
         style="font-size:18.6667px;text-align:center;letter-spacing:0px;word-spacing:0px;text-anchor:middle;fill:#ffffff"
         y="238"
         x="692.84308"
         id="OHn"><tspan
           y="238"
           x="692.84308"
           id="tspan438"
           sodipodi:role="line">OH</tspan><tspan
           y="261.33337"
           x="692.84308"
           id="tspan440"
           sodipodi:role="line">136</tspan></text>
      <text
         style="font-size:18.6667px;text-align:center;letter-spacing:0px;word-spacing:0px;text-anchor:middle;fill:#ffffff"
         y="269"
         x="738.98895"
         id="WVn"><tspan
           y="269"
           x="738.98895"
           id="tspan442"
           sodipodi:role="line">WV</tspan><tspan
           y="292.33337"
           x="738.98895"
           id="tspan444"
           sodipodi:role="line">28</tspan></text>
      <text
         style="font-size:18.6667px;letter-spacing:0px;word-spacing:0px"
         y="274"
         x="782.75"
         id="VAn"><tspan
           rotate="0 0 0"
           dy="0"
           dx="0"
           style="font-size:18.6667px;text-align:center;text-anchor:middle;fill:#ffffff"
           y="274"
           x="782.75"
           id="tspan454"
           sodipodi:role="line">VA</tspan><tspan
           rotate="0 0 0"
           style="font-size:18.6667px;text-align:center;text-anchor:middle;fill:#ffffff"
           y="297.33337"
           x="782.75"
           id="tspan456"
           sodipodi:role="line">99</tspan></text>
      <text
         style="font-size:18.6667px;letter-spacing:0px;word-spacing:0px"
         y="206.02357"
         x="779.69263"
         id="PAn"><tspan
           rotate="0 0 0"
           dy="0"
           dx="0"
           style="font-size:18.6667px;text-align:center;text-anchor:middle;fill:#ffffff"
           y="206.02357"
           x="779.69263"
           id="tspan458"
           sodipodi:role="line">PA</tspan><tspan
           rotate="0 0 0 0"
           style="font-size:18.6667px;text-align:center;text-anchor:middle;fill:#ffffff"
           y="229.35695"
           x="779.69263"
           id="tspan460"
           sodipodi:role="line">186</tspan></text>
      <text
         style="text-align:center;letter-spacing:0px;word-spacing:0px;text-anchor:middle;fill:#ffffff;font-size:18.66666667px;"
         y="147"
         x="815.72949"
         id="NYn"><tspan
           y="147"
           x="815.72949"
           id="tspan462"
           sodipodi:role="line">NY</tspan><tspan
           y="162"
           x="815.72949"
           id="tspan464"
           sodipodi:role="line">274</tspan></text>
      <text
         style="font-size:18.6667px;text-align:center;letter-spacing:0px;word-spacing:0px;text-anchor:middle;fill:#ffffff"
         y="80"
         x="888.31183"
         id="MEn"><tspan
           y="80"
           x="888.31183"
           id="tspan466"
           sodipodi:role="line">ME</tspan><tspan
           y="103.33337"
           x="888.31183"
           id="tspan468"
           sodipodi:role="line">24</tspan></text>
    </g>
    <g
       font-size="22"
       id="textb">
      <text
         style="font-size:18.66666667px;"
         y="58"
         x="800"
         id="NHn">NH 24</text>
      <text
         style="font-size:18.66666667px;"
         y="82"
         x="782"
         id="VTn">VT 16</text>
      <text
         style="font-size:18.66666667px;"
         y="164"
         x="927"
         id="MAn">MA 91</text>
      <text
         style="font-size:18.66666667px;"
         y="199"
         x="925"
         id="RIn">RI 26</text>
      <text
         style="font-size:18.6667px"
         y="228"
         x="918"
         id="CTn">CT 60</text>
      <text
         style="font-size:18.66666667px;"
         y="260"
         x="898"
         id="NJn">NJ 126</text>
      <text
         style="font-size:18.66666667px;"
         y="284"
         x="891"
         id="DEn">DE 21</text>
      <text
         style="font-size:18.66666667000000146px;fill:#000000;"
         y="305"
         x="883"
         id="MDn">MD 96</text>
      <text
         style="font-size:18.66666667px;"
         y="327"
         x="864"
         id="DCn">DC 20</text>
    </g>
  </g>
  <path
     stroke-width="1.6"
     stroke="#000000"
     fill="none"
     d="M 857,91 L 844,62 M 840,103 L 832,86 M 889,153 L 923,156 M 882,178 L 923,190 M 866,184 L 917,217 M 845,230 L 895,252 M 837,250 L 888,276 M 833,261 L 879,294 M 800,251 L 861,312"
     id="lines" />
  <path
     d="M215,493v55l36,45 M0,425h147l68,68h85l54,54v46"
     stroke-width="2"
     stroke="#A9A9A9"
     fill="none"
     id="frames" />
  <rect
     y="369.2963"
     x="853.56061"
     height="26.954546"
     width="37.936028"
     id="rect500"
     style="fill:#003399;fill-opacity:1;stroke:#800000" />
  <rect
     style="fill:#003399;fill-opacity:1;stroke:#800000"
     id="rect500-3"
     width="37.936028"
     height="26.954546"
     x="853.56061"
     y="400.25085" />
  <rect
     style="fill:#003399;fill-opacity:1;stroke:#800000"
     id="rect500-2"
     width="37.936028"
     height="26.954546"
     x="853.56061"
     y="431.20541" />
  <rect
     y="463.2963"
     x="853.49664"
     height="26.954546"
     width="37.936028"
     id="rect500-2-6"
     style="fill:#003399;fill-opacity:1;stroke:#800000" />
  <text
     id="text540"
     y="388.27441"
     x="873.54041"
     style="font-style:normal;font-variant:normal;font-weight:bold;font-stretch:normal;font-size:18.6667px;line-height:1.25;font-family:Arial;-inkscape-font-specification:'Arial Bold';text-align:center;text-anchor:middle;fill:#ffffff"
     xml:space="preserve"><tspan
       id="tspan542"
       y="388.27441"
       x="873.54041"
       sodipodi:role="line">6</tspan></text>
  <text
     id="text548"
     y="419.21887"
     x="873.52356"
     style="font-style:normal;font-variant:normal;font-weight:bold;font-stretch:normal;font-size:18.6667px;line-height:1.25;font-family:Arial;-inkscape-font-specification:'Arial Bold';text-align:center;text-anchor:middle;fill:#ffffff"
     xml:space="preserve"><tspan
       y="419.21887"
       x="873.52356"
       id="tspan546"
       sodipodi:role="line">7</tspan></text>
  <text
     xml:space="preserve"
     style="font-style:normal;font-variant:normal;font-weight:bold;font-stretch:normal;font-size:18.6667px;line-height:1.25;font-family:Arial;-inkscape-font-specification:'Arial Bold';text-align:center;text-anchor:middle;fill:#ffffff"
     x="872.52527"
     y="450.17676"
     id="text556"><tspan
       sodipodi:role="line"
       id="tspan554"
       x="872.52527"
       y="450.17676">6</tspan></text>
  <rect
     style="fill:#003399;fill-opacity:1;stroke:#800000"
     id="rect500-2-6-8"
     width="37.936028"
     height="26.954546"
     x="853.49664"
     y="494.25085" />
  <rect
     y="525.20538"
     x="853.49664"
     height="26.954546"
     width="37.936028"
     id="rect500-2-6-8-1"
     style="fill:#003399;fill-opacity:1;stroke:#800000" />
  <text
     id="text556-9"
     y="481.78632"
     x="873.45422"
     style="font-style:normal;font-variant:normal;font-weight:bold;font-stretch:normal;font-size:18.6667px;line-height:1.25;font-family:Arial;-inkscape-font-specification:'Arial Bold';text-align:center;text-anchor:middle;fill:#ffffff"
     xml:space="preserve"><tspan
       y="481.78632"
       x="873.45422"
       id="tspan554-7"
       sodipodi:role="line">51</tspan></text>
  <text
     xml:space="preserve"
     style="font-style:normal;font-variant:normal;font-weight:bold;font-stretch:normal;font-size:18.6667px;line-height:1.25;font-family:Arial;-inkscape-font-specification:'Arial Bold';text-align:center;text-anchor:middle;fill:#ffffff"
     x="873.45422"
     y="511.78632"
     id="text608"><tspan
       sodipodi:role="line"
       id="tspan606"
       x="873.45422"
       y="511.78632">7</tspan></text>
  <text
     id="text612"
     y="545.78632"
     x="873.45422"
     style="font-style:normal;font-variant:normal;font-weight:bold;font-stretch:normal;font-size:18.6667px;line-height:1.25;font-family:Arial;-inkscape-font-specification:'Arial Bold';text-align:center;text-anchor:middle;fill:#ffffff"
     xml:space="preserve"><tspan
       y="545.78632"
       x="873.45422"
       id="tspan610"
       sodipodi:role="line">14</tspan></text>
  <text
     id="text616"
     y="482.18686"
     x="913.45966"
     style="font-weight:bold;font-size:18.6667px;line-height:1.25;font-family:Arial;-inkscape-font-specification:'Arial Bold';text-align:center;text-anchor:middle"
     xml:space="preserve"><tspan
       y="482.18686"
       x="913.45966"
       id="tspan614"
       sodipodi:role="line">PR</tspan></text>
  <text
     xml:space="preserve"
     style="font-weight:bold;font-size:18.6667px;line-height:1.25;font-family:Arial;-inkscape-font-specification:'Arial Bold';text-align:center;text-anchor:middle"
     x="913.45966"
     y="514.18689"
     id="text620"><tspan
       sodipodi:role="line"
       id="tspan618"
       x="913.45966"
       y="514.18689">VI</tspan></text>
  <text
     id="text624"
     y="544.18689"
     x="913.45966"
     style="font-weight:bold;font-size:18.6667px;line-height:1.25;font-family:Arial;-inkscape-font-specification:'Arial Bold';text-align:center;text-anchor:middle"
     xml:space="preserve"><tspan
       y="544.18689"
       x="913.45966"
       id="tspan622"
       sodipodi:role="line">DA</tspan></text>
  <text
     xml:space="preserve"
     style="font-weight:bold;font-size:18.6667px;line-height:1.25;font-family:Arial;-inkscape-font-specification:'Arial Bold';text-align:center;text-anchor:middle"
     x="913.45966"
     y="450.18689"
     id="text628"><tspan
       sodipodi:role="line"
       id="tspan626"
       x="913.45966"
       y="450.18689">MP</tspan></text>
  <text
     id="text632"
     y="420.18689"
     x="913.45966"
     style="font-weight:bold;font-size:18.6667px;line-height:1.25;font-family:Arial;-inkscape-font-specification:'Arial Bold';text-align:center;text-anchor:middle"
     xml:space="preserve"><tspan
       y="420.18689"
       x="913.45966"
       id="tspan630"
       sodipodi:role="line">GU</tspan></text>
  <text
     xml:space="preserve"
     style="font-weight:bold;font-size:18.6667px;line-height:1.25;font-family:Arial;-inkscape-font-specification:'Arial Bold';text-align:center;text-anchor:middle"
     x="913.45966"
     y="388.18689"
     id="text636"><tspan
       sodipodi:role="line"
       id="tspan634"
       x="913.45966"
       y="388.18689">AS</tspan></text>
</svg>
